# xmcd
#
# Track frame offsets:
#	150
#	20910
#	43132
#	60105
#	80050
#	94575
#	118615
#	136447
#	154560
#	172552
#
# Disc length: 2515 seconds
#
# Revision: 1
# Processed by: cddbd v1.5.1PL0 Copyright (c) Steve Scherf et al.
# Submitted via: CDex 1.50Beta5
#
DISCID=7409d10a
DTITLE=チューリップ - I dream
DYEAR=1900
DGENRE=Pop
TTITLE0=エジプトの風
TTITLE1=愛の迷路
TTITLE2=恋は素顔で
TTITLE3=この小さな掌〜詩歩子へ〜
TTITLE4=“Feel It”
TTITLE5=たったひとりのオーディエンス
TTITLE6=黄昏のモノローグ
TTITLE7=冬の街
TTITLE8=夏は終わらない
TTITLE9=I dream
EXTD=
EXTT0=
EXTT1=
EXTT2=
EXTT3=
EXTT4=
EXTT5=
EXTT6=
EXTT7=
EXTT8=
EXTT9=
PLAYORDER=
